<svg id="Layer_1" enable-background="new 0 0 512 512" height="512" viewBox="0 0 512 512" width="512" xmlns="http://www.w3.org/2000/svg"><g><path d="m256 0c-123.678 0-224.133 114.74-224.133 256 0 141.313 100.455 256 224.132 256 141.263 0 256-114.688 256-256 .001-141.26-114.737-256-255.999-256z" fill="#2c2d4c"/><path d="m256 0v512c141.263 0 256-114.688 256-256 0-141.26-114.738-256-256-256z" fill="#07141f"/><path d="m0 256c0-141.38 114.611-256 256-256 70.69 0 128 57.31 128 128 0 70.69-57.31 128-128 128-70.698 0-128 57.31-128 128s57.301 128 128 128c-141.389 0-256-114.611-256-256z" fill="#f9f2f3"/><path d="m383.999 128c0-70.69-57.31-128-128-128v256c70.691 0 128-57.31 128-128z" fill="#f1e3e2"/><circle cx="256" cy="384" fill="#f9f2f3" r="42.667"/><path d="m298.666 384c0-23.543-19.123-42.667-42.667-42.667v85.333c23.544.001 42.667-19.114 42.667-42.666z" fill="#f1e3e2"/><circle cx="256" cy="128" fill="#2c2d4c" r="42.667"/><path d="m298.666 128c0-23.543-19.123-42.667-42.667-42.667v85.333c23.544.001 42.667-19.114 42.667-42.666z" fill="#07141f"/></g></svg>