<svg height="512" viewBox="0 0 128 128" width="512" xmlns="http://www.w3.org/2000/svg" xmlns:xlink="http://www.w3.org/1999/xlink"><linearGradient id="a" gradientUnits="userSpaceOnUse" x1="89.342" x2="8.355" y1="102.821" y2="21.834"><stop offset="0" stop-color="#fc3e81"/><stop offset="1" stop-color="#57abd0"/></linearGradient><path d="m70.011 105.954a1.749 1.749 0 0 1 -1.742 1.609c-.047 0-.095 0-.142-.006a44.482 44.482 0 0 1 -4.614-.622 1.75 1.75 0 1 1 .645-3.44 41.033 41.033 0 0 0 4.25.574 1.749 1.749 0 0 1 1.603 1.885zm53.094-54.319c-.132-.181-13.458-17.981-31.883-8.7a27.393 27.393 0 0 0 -4.082 2.608l-4.477-11.34a31.491 31.491 0 0 0 -21.311-18.854l-2.363-.614a1.75 1.75 0 1 0 -.879 3.388l2.362.613a27.981 27.981 0 0 1 18.935 16.755l4.893 12.379c-1.656 1.447-3.328 3.044-5.018 4.717l-11-15.081a31.491 31.491 0 0 0 -25.365-12.9h-12.955a71.489 71.489 0 0 1 -2.634-14.475l21.759 5.648a1.75 1.75 0 1 0 .88-3.387l-24.05-6.242a1.751 1.751 0 0 0 -2.19 1.683 67.548 67.548 0 0 0 2.6 16.775h-20.02a1.75 1.75 0 0 0 -1.7 2.179c.1.4 10.292 39 49.952 48.38-14.759 10.683-30.588 15.886-48.252 15.886a1.751 1.751 0 0 0 -1.743 1.914c.074.784 2.036 19.3 21.827 28.767a1.745 1.745 0 0 0 1.517 0 40.8 40.8 0 0 0 20-20.286 58.685 58.685 0 0 0 6.092 2.752 1.75 1.75 0 1 0 1.26-3.266 49.787 49.787 0 0 1 -7.351-3.493 1.753 1.753 0 0 0 -2.594.99c-.038.126-3.906 12.514-18.169 19.778a34.684 34.684 0 0 1 -18.783-23.679c18.867-.418 35.706-6.615 51.416-18.91a1.75 1.75 0 0 0 -.768-3.1 62.882 62.882 0 0 1 -22.171-8.4h12a1.75 1.75 0 1 0 0-3.5h-17.047a64.555 64.555 0 0 1 -9.084-8.505h17.375a1.75 1.75 0 0 0 0-3.5h-20.265a73.327 73.327 0 0 1 -5.657-8.506h16.921a1.75 1.75 0 0 0 0-3.5h-18.795a69.045 69.045 0 0 1 -3.605-8.5h34.234a27.981 27.981 0 0 1 22.537 11.458l12.199 16.733a1.748 1.748 0 0 0 1.279.714 1.708 1.708 0 0 0 1.374-.509c4.379-4.392 8.629-8.495 12.491-10.44 11.5-5.8 20.607.6 24.868 4.726a29.179 29.179 0 0 0 -3.389.342 16.661 16.661 0 0 0 -13.858 17.767c.587 8.74-1.033 20.978-12.086 29.65a25.964 25.964 0 0 1 -11.2 5.095 1.75 1.75 0 0 0 .666 3.437 29.438 29.438 0 0 0 12.694-5.782c12.9-10.124 13.945-24.794 13.419-32.638a13.177 13.177 0 0 1 10.924-14.078 24.628 24.628 0 0 1 6.607-.186 1.75 1.75 0 0 0 1.663-2.766zm-20.88-.25a2.119 2.119 0 1 0 -2.118-2.118 2.119 2.119 0 0 0 2.118 2.118z" fill="url(#a)"/></svg>