<svg id="Capa_1" enable-background="new 0 0 512 512" height="512" viewBox="0 0 512 512" width="512" xmlns="http://www.w3.org/2000/svg" xmlns:xlink="http://www.w3.org/1999/xlink"><linearGradient id="SVGID_1_" gradientUnits="userSpaceOnUse" x1="256" x2="256" y1="512" y2="0"><stop offset="0" stop-color="#ffe59a"/><stop offset="1" stop-color="#ffffd5"/></linearGradient><linearGradient id="SVGID_2_" gradientUnits="userSpaceOnUse" x1="256" x2="256" y1="407" y2="105"><stop offset="0" stop-color="#ffde00"/><stop offset="1" stop-color="#fd5900"/></linearGradient><g><g><circle cx="256" cy="256" fill="url(#SVGID_1_)" r="256"/></g><g><g><path d="m256 158.294c-53.867 0-97.706 43.831-97.706 97.706s43.839 97.706 97.706 97.706 97.706-43.831 97.706-97.706-43.839-97.706-97.706-97.706zm8.882 97.706c0 2.359-.937 4.615-2.602 6.28l-25.12 25.112c-3.47 3.47-9.09 3.47-12.56 0s-3.47-9.091 0-12.56l22.518-22.509v-31.852c0-4.91 3.973-8.882 8.882-8.882s8.882 3.973 8.882 8.882zm-8.882-115.471c4.91 0 8.882-3.973 8.882-8.882v-17.765c0-4.91-3.973-8.882-8.882-8.882s-8.882 3.973-8.882 8.882v17.765c0 4.91 3.972 8.882 8.882 8.882zm0 230.942c-4.91 0-8.882 3.973-8.882 8.882v17.765c0 4.91 3.973 8.882 8.882 8.882s8.882-3.973 8.882-8.882v-17.765c0-4.91-3.972-8.882-8.882-8.882zm-124.353-124.353h-17.765c-4.91 0-8.882 3.973-8.882 8.882 0 4.91 3.973 8.882 8.882 8.882h17.765c4.91 0 8.882-3.973 8.882-8.882 0-4.91-3.972-8.882-8.882-8.882zm266.471 0h-17.765c-4.91 0-8.882 3.973-8.882 8.882 0 4.91 3.973 8.882 8.882 8.882h17.765c4.91 0 8.882-3.973 8.882-8.882 0-4.91-3.973-8.882-8.882-8.882zm-236.337 90.532-12.56 12.56c-3.47 3.47-3.47 9.091 0 12.56 3.47 3.47 9.091 3.47 12.56 0l12.56-12.56c3.47-3.47 3.47-9.091 0-12.56-3.469-3.47-9.09-3.47-12.56 0zm188.438-188.42-12.56 12.56c-3.47 3.47-3.47 9.091 0 12.56 3.47 3.47 9.091 3.47 12.56 0l12.56-12.56c3.47-3.47 3.47-9.091 0-12.56s-9.09-3.47-12.56 0zm0 188.42c-3.47-3.47-9.091-3.47-12.56 0-3.47 3.47-3.47 9.091 0 12.56l12.56 12.56c3.47 3.47 9.091 3.47 12.56 0 3.47-3.47 3.47-9.09 0-12.56zm-188.438-163.3c3.47 3.47 9.091 3.47 12.56 0 3.47-3.47 3.47-9.091 0-12.56l-12.56-12.56c-3.47-3.47-9.091-3.47-12.56 0s-3.47 9.091 0 12.56z" fill="url(#SVGID_2_)"/></g></g></g></svg>