<?xml version="1.0" encoding="iso-8859-1"?>
<!-- Generator: Adobe Illustrator 19.0.0, SVG Export Plug-In . SVG Version: 6.00 Build 0)  -->
<svg version="1.1" id="Capa_1" xmlns="http://www.w3.org/2000/svg" xmlns:xlink="http://www.w3.org/1999/xlink" x="0px" y="0px"
	 viewBox="0 0 464 464" style="enable-background:new 0 0 464 464;" xml:space="preserve">
<path style="fill:#2276BB;" d="M0,0h464v464H0V0z"/>
<circle style="fill:#FFBB4A;" cx="232" cy="168" r="160"/>
<circle style="fill:#FADA88;" cx="232" cy="168" r="120"/>
<circle style="fill:#FFF89B;" cx="232" cy="168" r="80"/>
<path style="fill:#1D5C88;" d="M96,376V216H0v248h48h416V224h-88v112h-32v-56h-72v112h-48v-88h-96v72H96z"/>
<g>
	<path style="fill:#5F7ABC;" d="M136,72h-32c8.837,0,16-7.163,16-16s-7.163-16-16-16H40c-8.837,0-16,7.163-16,16s7.163,16,16,16h32
		c-8.837,0-16,7.163-16,16s7.163,16,16,16h64c8.837,0,16-7.163,16-16S144.837,72,136,72z"/>
	<path style="fill:#5F7ABC;" d="M376,128h-96c-8.837,0-16,7.163-16,16s7.163,16,16,16h-24c-8.837,0-16,7.163-16,16s7.163,16,16,16
		h96c8.837,0,16-7.163,16-16s-7.163-16-16-16h24c8.837,0,16-7.163,16-16S384.837,128,376,128z"/>
</g>
<g>
	<path style="fill:#FFF89B;" d="M24,240h16v16H24V240z"/>
	<path style="fill:#FFF89B;" d="M56,240h16v16H56V240z"/>
	<path style="fill:#FFF89B;" d="M152,328h16v16h-16V328z"/>
	<path style="fill:#FFF89B;" d="M184,328h16v16h-16V328z"/>
	<path style="fill:#FFF89B;" d="M24,272h16v16H24V272z"/>
	<path style="fill:#FFF89B;" d="M56,272h16v16H56V272z"/>
	<path style="fill:#FFF89B;" d="M24,304h16v16H24V304z"/>
	<path style="fill:#FFF89B;" d="M56,304h16v16H56V304z"/>
	<path style="fill:#FFF89B;" d="M56,336h16v16H56V336z"/>
	<path style="fill:#FFF89B;" d="M424,248h16v16h-16V248z"/>
	<path style="fill:#FFF89B;" d="M400,280h16v16h-16V280z"/>
	<path style="fill:#FFF89B;" d="M184,360h16v16h-16V360z"/>
	<path style="fill:#FFF89B;" d="M152,392h16v16h-16V392z"/>
	<path style="fill:#FFF89B;" d="M184,416h16v16h-16V416z"/>
	<path style="fill:#FFF89B;" d="M424,312h16v16h-16V312z"/>
	<path style="fill:#FFF89B;" d="M424,344h16v16h-16V344z"/>
	<path style="fill:#FFF89B;" d="M392,360h16v16h-16V360z"/>
	<path style="fill:#FFF89B;" d="M296,312h16v16h-16V312z"/>
	<path style="fill:#FFF89B;" d="M312,344h16v16h-16V344z"/>
</g>
<g>
</g>
<g>
</g>
<g>
</g>
<g>
</g>
<g>
</g>
<g>
</g>
<g>
</g>
<g>
</g>
<g>
</g>
<g>
</g>
<g>
</g>
<g>
</g>
<g>
</g>
<g>
</g>
<g>
</g>
</svg>
